Coordinates
version=1
nRows=31
nColumns=38
inDegrees=no

Units are S.I. units (second, meters, Newtons, ...)
If the header above contains a line with 'inDegrees', this indicates whether rotational values are in degrees (yes) or radians (no).

endheader
time	pelvis_tilt	pelvis_list	pelvis_rotation	pelvis_tx	pelvis_ty	pelvis_tz	hip_flexion_r	hip_adduction_r	hip_rotation_r	knee_angle_r	ankle_angle_r	subtalar_angle_r	mtp_angle_r	hip_flexion_l	hip_adduction_l	hip_rotation_l	knee_angle_l	ankle_angle_l	subtalar_angle_l	mtp_angle_l	lumbar_extension	lumbar_bending	lumbar_rotation	arm_flex_r	arm_add_r	arm_rot_r	elbow_flex_r	pro_sup_r	wrist_flex_r	wrist_dev_r	arm_flex_l	arm_add_l	arm_rot_l	elbow_flex_l	pro_sup_l	wrist_flex_l	wrist_dev_l
1.41	-3.01014	1.45006	-1.64913	0.60339	1.09404	1.04523	0.396489	-0.0761024	-0.237318	0.460316	-0.0808326	0	0	-0.329702	0.0672857	-0.210768	0.242425	-0.102543	0	0	-0.312954	0.0430449	-0.138228	-0.207166	-0.170806	-0.218609	0.532491	0.464603	0	0	0.182879	-0.83314	0.607625	1.01889	1.1827	0	0
1.42	-3.01072	1.45383	-1.64159	0.603157	1.10442	1.04372	0.398824	-0.0766123	-0.247524	0.44499	-0.0744402	0	0	-0.336789	0.063193	-0.21007	0.243012	-0.100632	0	0	-0.308363	0.0467486	-0.144252	-0.20722	-0.171065	-0.217251	0.532498	0.460127	0	0	0.188234	-0.836191	0.609205	1.02254	1.1842	0	0
1.43	-3.01283	1.45719	-1.63241	0.602981	1.11491	1.04232	0.39931	-0.0762277	-0.253823	0.432067	-0.0693336	0	0	-0.344314	0.0586417	-0.20876	0.243675	-0.0991586	0	0	-0.304122	0.0505738	-0.150928	-0.206792	-0.171023	-0.216357	0.532018	0.457114	0	0	0.191838	-0.839022	0.610014	1.02567	1.18602	0	0
1.44	-3.01422	1.46013	-1.62439	0.602927	1.12545	1.041	0.399254	-0.0756113	-0.255719	0.424671	-0.0661887	0	0	-0.351811	0.0540662	-0.207666	0.244844	-0.098257	0	0	-0.300629	0.0540995	-0.157638	-0.205963	-0.170628	-0.215955	0.53149	0.455041	0	0	0.193699	-0.841871	0.609833	1.02875	1.18747	0	0
1.45	-3.0127	1.46312	-1.61924	0.603059	1.13612	1.03979	0.398817	-0.0748629	-0.25384	0.422525	-0.0632203	0	0	-0.358687	0.0495985	-0.20589	0.246614	-0.0971376	0	0	-0.298239	0.0570732	-0.163255	-0.192809	-0.133829	-0.354222	0.518248	0.602285	0	0	0.191779	-0.841822	0.6002	1.03208	1.19774	0	0
1.46	-3.01222	1.46526	-1.61438	0.603314	1.14691	1.03855	0.398132	-0.0732489	-0.246711	0.42798	-0.0644518	0	0	-0.365562	0.0450283	-0.208248	0.250749	-0.0967924	0	0	-0.292773	0.0590749	-0.177081	-0.195475	-0.155681	-0.26378	0.520355	0.509384	0	0	0.174088	-0.844024	0.578289	1.03668	1.20346	0	0
1.47	-3.00861	1.46743	-1.61287	0.603715	1.15791	1.03732	0.397543	-0.0714519	-0.23827	0.43872	-0.0671774	0	0	-0.371861	0.040562	-0.210899	0.256071	-0.0970286	0	0	-0.289796	0.0613005	-0.184265	-0.1944	-0.153074	-0.270813	0.519852	0.517057	0	0	0.167337	-0.845517	0.57104	1.03999	1.20421	0	0
1.48	-3.00507	1.46935	-1.61151	0.604233	1.16913	1.0361	0.396291	-0.0689549	-0.229151	0.453388	-0.0713403	0	0	-0.377623	0.0357625	-0.214114	0.263246	-0.0974757	0	0	-0.287183	0.0634423	-0.191014	-0.194551	-0.150383	-0.278235	0.520876	0.525186	0	0	0.159418	-0.846789	0.563928	1.04314	1.20359	0	0
1.49	-3.0055	1.47096	-1.60597	0.604836	1.18064	1.03486	0.393222	-0.0651803	-0.219811	0.47008	-0.0768186	0	0	-0.382976	0.0300216	-0.217954	0.272433	-0.0981874	0	0	-0.284707	0.0660797	-0.197541	-0.195972	-0.147642	-0.286439	0.522913	0.533308	0	0	0.150492	-0.84753	0.557424	1.04589	1.2034	0	0
1.5	-3.00895	1.47229	-1.59701	0.605532	1.19245	1.03364	0.388122	-0.0602466	-0.21039	0.487673	-0.0833652	0	0	-0.388019	0.0234553	-0.221176	0.283193	-0.0995559	0	0	-0.282392	0.0691277	-0.203526	-0.198687	-0.144917	-0.295268	0.525636	0.54166	0	0	0.141164	-0.84742	0.551674	1.04814	1.20348	0	0
1.51	-3.01463	1.47445	-1.58549	0.606353	1.20447	1.03247	0.383893	-0.055185	-0.2024	0.505093	-0.0944017	0	0	-0.391101	0.0160014	-0.223436	0.296232	-0.101134	0	0	-0.27976	0.0726047	-0.207623	-0.194133	-0.122621	-0.381723	0.520634	0.635393	0	0	0.134014	-0.846048	0.549192	1.04892	1.20351	0	0
1.52	-3.04024	1.47403	-1.55419	0.607082	1.21645	1.03171	0.379465	-0.0505794	-0.199894	0.518997	-0.112158	0	0	-0.395426	0.00627824	-0.226941	0.312336	-0.103639	0	0	-0.277166	0.077967	-0.218984	-0.20439	-0.150487	-0.27392	0.529295	0.518992	0	0	0.112809	-0.842828	0.530372	1.04901	1.20838	0	0
1.53	-3.07367	1.47254	-1.51519	0.607746	1.22841	1.03144	0.375891	-0.0469206	-0.199971	0.526425	-0.115822	0	0	-0.399896	-0.00378888	-0.226094	0.329119	-0.10662	0	0	-0.278393	0.0852444	-0.222541	-0.20554	-0.148402	-0.286886	0.529081	0.529384	0	0	0.108908	-0.839795	0.536068	1.04541	1.2042	0	0
1.54	-3.12264	1.46973	-1.46192	0.608341	1.2404	1.03162	0.370234	-0.0405128	-0.200026	0.52907	-0.127532	0	0	-0.40303	-0.015898	-0.229185	0.351294	-0.111877	0	0	-0.280524	0.0947316	-0.225566	-0.207306	-0.151991	-0.281749	0.529907	0.52278	0	0	0.0998373	-0.831986	0.531669	1.0397	1.20604	0	0
1.55	3.10453	1.46668	-1.40415	0.609116	1.25244	1.03214	0.363574	-0.031499	-0.197079	0.535096	-0.148163	0	0	-0.404024	-0.0280849	-0.234347	0.377679	-0.118884	0	0	-0.282923	0.105115	-0.225689	-0.208809	-0.156323	-0.275608	0.530244	0.517785	0	0	0.0898328	-0.821707	0.525967	1.03241	1.2072	0	0
1.56	3.04652	1.46471	-1.34724	0.61012	1.26449	1.03289	0.358288	-0.0218189	-0.189583	0.546691	-0.170197	0	0	-0.400873	-0.0395759	-0.241334	0.409721	-0.126924	0	0	-0.284102	0.115345	-0.223525	-0.21019	-0.161621	-0.267375	0.53015	0.511163	0	0	0.0776746	-0.809353	0.517817	1.02377	1.20816	0	0
1.57	2.99156	1.46461	-1.29573	0.611341	1.27654	1.03369	0.35606	-0.0130592	-0.176319	0.561207	-0.180808	0	0	-0.392481	-0.0497699	-0.248229	0.447446	-0.135519	0	0	-0.28312	0.124229	-0.219852	-0.212268	-0.166738	-0.261383	0.530402	0.501549	0	0	0.0634054	-0.795831	0.50808	1.01422	1.20949	0	0
1.58	2.94073	1.4664	-1.24991	0.612945	1.28847	1.03408	0.356045	-0.00501083	-0.157758	0.575744	-0.185543	0	0	-0.378691	-0.0586317	-0.253698	0.490995	-0.145911	0	0	-0.280775	0.132619	-0.212218	-0.211164	-0.155776	-0.314452	0.526471	0.552883	0	0	0.051715	-0.781021	0.497389	1.00378	1.21551	0	0
1.59	2.88798	1.46909	-1.2019	0.614398	1.30041	1.03512	0.35701	0.00337644	-0.139925	0.591016	-0.185987	0	0	-0.359163	-0.0688651	-0.259276	0.539506	-0.162134	0	0	-0.276543	0.138364	-0.207703	-0.216256	-0.170605	-0.269166	0.527631	0.50364	0	0	0.0399135	-0.770387	0.503012	0.99325	1.20458	0	0
1.6	2.84324	1.46912	-1.16019	0.615995	1.31208	1.03609	0.35397	0.0110376	-0.132633	0.603229	-0.18532	0	0	-0.340008	-0.0789416	-0.258239	0.588907	-0.178168	0	0	-0.276186	0.145269	-0.201657	-0.218313	-0.171011	-0.275524	0.526573	0.508598	0	0	0.031284	-0.759766	0.506778	0.983492	1.1988	0	0
1.61	2.79918	1.46811	-1.11724	0.617465	1.32364	1.03712	0.349021	0.0175114	-0.136929	0.612138	-0.184301	0	0	-0.319008	-0.0897045	-0.252487	0.640079	-0.195467	0	0	-0.276698	0.152742	-0.196259	-0.221317	-0.170146	-0.286233	0.526894	0.511895	0	0	0.0240148	-0.749762	0.513229	0.974269	1.19101	0	0
1.62	2.75991	1.46633	-1.07754	0.618784	1.33501	1.03814	0.341616	0.0221911	-0.149433	0.61687	-0.184564	0	0	-0.296644	-0.099604	-0.24193	0.691362	-0.209512	0	0	-0.27633	0.15956	-0.196939	-0.2232	-0.177462	-0.263501	0.526316	0.487788	0	0	0.00203494	-0.733697	0.489372	0.966756	1.20652	0	0
1.63	2.72168	1.46492	-1.03822	0.620042	1.34613	1.0389	0.333211	0.0260083	-0.165121	0.619367	-0.182435	0	0	-0.271841	-0.108741	-0.229462	0.743274	-0.223962	0	0	-0.276592	0.166736	-0.192972	-0.228207	-0.181088	-0.256409	0.530088	0.474452	0	0	-0.00477232	-0.72508	0.498273	0.959258	1.1981	0	0
1.64	2.68677	1.46387	-1.00201	0.621252	1.35692	1.03959	0.324387	0.0298757	-0.179476	0.621272	-0.176359	0	0	-0.245819	-0.116641	-0.215318	0.794585	-0.226389	0	0	-0.279567	0.173575	-0.182363	-0.230703	-0.166245	-0.319569	0.53276	0.531711	0	0	0.00183562	-0.721226	0.531675	0.952478	1.17385	0	0
1.65	2.65716	1.46251	-0.972077	0.622625	1.36737	1.03993	0.315279	0.0342741	-0.189906	0.623892	-0.165558	0	0	-0.220223	-0.123349	-0.202913	0.845226	-0.207503	0	0	-0.281466	0.179828	-0.173639	-0.24081	-0.17923	-0.2772	0.54325	0.474124	0	0	0.0128308	-0.724786	0.584266	0.947442	1.12766	0	0
1.66	2.64342	1.46086	-0.958825	0.623979	1.37759	1.04061	0.304972	0.038258	-0.195686	0.62635	-0.157059	0	0	-0.195968	-0.128036	-0.19386	0.893778	-0.184839	0	0	-0.285427	0.183564	-0.16556	-0.242676	-0.177969	-0.285834	0.545898	0.477591	0	0	0.0104268	-0.718843	0.599862	0.94292	1.1155	0	0
1.67	2.65197	1.4583	-0.96884	0.625338	1.38762	1.04161	0.292297	0.0414336	-0.198225	0.628216	-0.149039	0	0	-0.173974	-0.130039	-0.188819	0.939386	-0.162951	0	0	-0.291692	0.184924	-0.15701	-0.242668	-0.176352	-0.294124	0.546525	0.481871	0	0	0.00759913	-0.713118	0.614127	0.938653	1.10511	0	0
1.68	2.67544	1.45553	-0.994884	0.626679	1.39755	1.04293	0.278095	0.0436816	-0.198311	0.628312	-0.144453	0	0	-0.153438	-0.129732	-0.187271	0.980355	-0.147849	0	0	-0.297163	0.183531	-0.154507	-0.239363	-0.183568	-0.267516	0.543011	0.457154	0	0	-0.0158448	-0.698013	0.58359	0.934518	1.12817	0	0
1.69	2.70798	1.45268	-1.03119	0.628029	1.40739	1.04443	0.263174	0.0452931	-0.196821	0.627355	-0.138526	0	0	-0.133674	-0.127656	-0.188237	1.01658	-0.132728	0	0	-0.304954	0.180962	-0.145806	-0.237732	-0.185412	-0.261098	0.540818	0.445483	0	0	-0.0200964	-0.693117	0.597655	0.930819	1.11714	0	0
1.7	2.74146	1.45071	-1.06925	0.629355	1.41719	1.0461	0.248998	0.0463485	-0.194175	0.625738	-0.132524	0	0	-0.112982	-0.123952	-0.188974	1.04862	-0.118954	0	0	-0.314076	0.177254	-0.131021	-0.233654	-0.169083	-0.323201	0.535813	0.500612	0	0	-0.012232	-0.692471	0.636245	0.926692	1.09146	0	0
1.71	2.77452	1.44931	-1.10746	0.630813	1.42692	1.04754	0.235175	0.0470978	-0.19124	0.623489	-0.125678	0	0	-0.0913518	-0.119045	-0.188555	1.07662	-0.106527	0	0	-0.318588	0.172428	-0.125021	-0.233998	-0.18168	-0.274889	0.533444	0.444088	0	0	-0.0208012	-0.689143	0.64861	0.923588	1.07899	0	0
